<svg id="svg" version="1.1" width="400" height="225" viewBox="0 0 400 225" xmlns="http://www.w3.org/2000/svg" xmlns:xlink="http://www.w3.org/1999/xlink" ><g id="svgg"><path id="path0" d="M119.422 71.872 C 119.325 72.094,119.310 72.339,119.387 72.416 C 119.616 72.645,119.800 72.324,119.695 71.880 C 119.601 71.487,119.589 71.487,119.422 71.872 M120.672 72.594 C 120.672 72.718,120.866 73.174,121.103 73.607 C 121.340 74.041,121.534 74.294,121.534 74.170 C 121.534 74.046,121.340 73.590,121.103 73.157 C 120.866 72.724,120.672 72.470,120.672 72.594 M119.077 73.270 C 119.077 73.455,119.178 73.607,119.302 73.607 C 119.426 73.607,119.527 73.455,119.527 73.270 C 119.527 73.084,119.426 72.932,119.302 72.932 C 119.178 72.932,119.077 73.084,119.077 73.270 M233.877 78.728 C 233.877 78.916,243.325 78.866,243.513 78.678 C 243.578 78.613,241.437 78.559,238.754 78.559 C 236.072 78.559,233.877 78.635,233.877 78.728 M244.457 79.010 C 244.457 79.133,244.660 79.235,244.907 79.235 C 245.155 79.235,245.357 79.133,245.357 79.010 C 245.357 78.886,245.155 78.784,244.907 78.784 C 244.660 78.784,244.457 78.886,244.457 79.010 M248.298 80.923 C 248.298 81.047,248.447 81.345,248.628 81.585 C 248.810 81.825,248.959 81.921,248.959 81.797 C 248.959 81.673,248.810 81.375,248.628 81.135 C 248.447 80.894,248.298 80.799,248.298 80.923 M124.630 81.411 C 124.396 81.644,124.453 82.386,124.705 82.386 C 124.828 82.386,124.930 82.133,124.930 81.823 C 124.930 81.234,124.878 81.162,124.630 81.411 M236.084 91.333 C 237.360 91.373,239.385 91.373,240.586 91.333 C 241.786 91.292,240.743 91.259,238.267 91.259 C 235.791 91.260,234.808 91.293,236.084 91.333 M154.004 95.789 C 153.860 96.105,153.746 96.485,153.751 96.634 C 153.756 96.783,153.909 96.560,154.092 96.139 C 154.477 95.253,154.395 94.930,154.004 95.789 M247.327 99.312 C 247.599 99.584,247.892 99.735,247.980 99.648 C 248.067 99.560,247.943 99.341,247.704 99.161 C 247.035 98.654,246.774 98.759,247.327 99.312 M248.702 100.338 C 248.984 100.740,249.262 101.069,249.320 101.069 C 249.514 101.069,248.987 100.247,248.586 99.925 C 248.304 99.699,248.338 99.819,248.702 100.338 M250.310 104.333 C 250.310 104.519,250.411 104.671,250.535 104.671 C 250.658 104.671,250.760 104.519,250.760 104.333 C 250.760 104.147,250.658 103.995,250.535 103.995 C 250.411 103.995,250.310 104.147,250.310 104.333 M250.310 107.259 C 250.310 107.445,250.411 107.597,250.535 107.597 C 250.658 107.597,250.760 107.445,250.760 107.259 C 250.760 107.074,250.658 106.922,250.535 106.922 C 250.411 106.922,250.310 107.074,250.310 107.259 M249.399 109.660 C 249.250 109.949,248.913 110.436,248.649 110.742 C 248.312 111.133,248.291 111.206,248.576 110.987 C 249.120 110.568,249.938 109.401,249.790 109.253 C 249.724 109.188,249.549 109.371,249.399 109.660 M247.214 111.473 C 246.936 111.608,246.708 111.806,246.708 111.914 C 246.708 112.022,247.012 111.953,247.383 111.761 C 248.401 111.235,248.249 110.975,247.214 111.473 M110.073 111.761 C 110.073 111.947,110.174 112.099,110.298 112.099 C 110.422 112.099,110.523 111.947,110.523 111.761 C 110.523 111.576,110.422 111.424,110.298 111.424 C 110.174 111.424,110.073 111.576,110.073 111.761 " stroke="none" fill="#473d7e" fill-rule="evenodd"></path><path id="path1" d="M119.752 72.107 C 119.752 72.437,119.665 72.707,119.559 72.707 C 119.452 72.707,119.413 72.960,119.472 73.270 C 119.540 73.624,119.477 73.832,119.302 73.832 C 119.135 73.832,119.072 74.012,119.142 74.282 C 119.207 74.530,119.156 74.733,119.030 74.733 C 118.903 74.733,118.848 74.986,118.907 75.295 C 118.966 75.605,118.921 75.858,118.806 75.858 C 118.691 75.858,118.658 76.052,118.733 76.289 C 118.809 76.527,118.763 76.787,118.632 76.868 C 118.502 76.949,118.455 77.113,118.530 77.234 C 118.604 77.354,118.459 78.132,118.207 78.963 C 117.955 79.793,117.677 80.929,117.588 81.486 C 117.500 82.043,117.267 82.633,117.071 82.797 C 116.874 82.961,116.840 83.031,116.995 82.952 C 117.175 82.861,117.276 82.976,117.276 83.273 C 117.276 83.528,117.189 83.737,117.082 83.737 C 116.976 83.737,116.937 83.990,116.996 84.299 C 117.062 84.643,117.000 84.862,116.837 84.862 C 116.677 84.862,116.625 85.034,116.708 85.293 C 116.783 85.531,116.749 85.784,116.631 85.856 C 116.514 85.929,116.471 86.191,116.536 86.438 C 116.606 86.707,116.543 86.888,116.378 86.888 C 116.216 86.888,116.161 87.039,116.243 87.254 C 116.320 87.456,116.294 87.734,116.185 87.873 C 116.076 88.012,115.976 88.278,115.963 88.464 C 115.912 89.183,115.151 92.181,115.004 92.245 C 114.918 92.282,114.897 92.498,114.956 92.726 C 115.016 92.954,114.964 93.202,114.841 93.278 C 114.718 93.354,114.670 93.619,114.735 93.866 C 114.802 94.121,114.742 94.316,114.597 94.316 C 114.437 94.316,114.394 94.526,114.483 94.879 C 114.564 95.202,114.527 95.442,114.396 95.442 C 114.270 95.442,114.217 95.633,114.278 95.867 C 114.339 96.100,114.289 96.354,114.166 96.430 C 114.043 96.506,113.995 96.770,114.060 97.018 C 114.130 97.288,114.067 97.468,113.900 97.468 C 113.733 97.468,113.669 97.647,113.740 97.918 C 113.805 98.165,113.772 98.420,113.668 98.485 C 113.564 98.549,113.477 98.777,113.476 98.991 C 113.471 99.748,112.937 101.745,112.740 101.745 C 112.630 101.745,112.604 101.998,112.682 102.307 C 112.770 102.658,112.728 102.870,112.569 102.870 C 112.411 102.870,112.369 103.082,112.457 103.433 C 112.538 103.756,112.501 103.995,112.370 103.995 C 112.244 103.995,112.194 104.198,112.259 104.446 C 112.328 104.709,112.266 104.896,112.110 104.896 C 111.950 104.896,111.898 105.068,111.980 105.327 C 112.056 105.564,112.016 105.821,111.893 105.897 C 111.769 105.973,111.726 106.186,111.796 106.369 C 111.867 106.552,111.797 106.856,111.642 107.043 C 111.487 107.230,111.424 107.447,111.502 107.526 C 111.581 107.604,111.559 107.779,111.453 107.914 C 111.348 108.049,111.082 109.099,110.864 110.246 C 110.645 111.394,110.387 112.382,110.291 112.441 C 110.194 112.501,110.168 112.752,110.233 113.000 C 110.298 113.247,110.247 113.450,110.120 113.450 C 109.994 113.450,109.940 113.641,110.001 113.874 C 110.062 114.108,110.007 114.365,109.877 114.444 C 109.748 114.524,109.700 114.740,109.771 114.923 C 109.841 115.106,109.787 115.391,109.650 115.555 C 109.514 115.720,109.466 115.919,109.544 115.997 C 109.623 116.076,109.563 116.290,109.411 116.473 C 109.258 116.656,109.202 116.917,109.285 117.051 C 109.369 117.186,109.338 117.418,109.218 117.568 C 109.097 117.717,108.928 118.270,108.841 118.796 L 108.683 119.752 112.361 119.749 C 114.818 119.747,115.926 119.673,115.701 119.527 C 115.512 119.405,115.478 119.308,115.623 119.306 C 115.772 119.304,115.833 119.110,115.766 118.852 C 115.701 118.604,115.747 118.402,115.868 118.402 C 115.989 118.402,116.040 118.149,115.981 117.839 C 115.913 117.487,115.976 117.276,116.149 117.276 C 116.311 117.276,116.366 117.125,116.284 116.910 C 116.206 116.709,116.255 116.409,116.391 116.245 C 116.528 116.080,116.579 115.847,116.504 115.726 C 116.430 115.605,116.457 115.452,116.564 115.386 C 116.672 115.319,116.890 114.504,117.049 113.575 C 117.208 112.646,117.424 111.939,117.529 112.003 C 117.634 112.068,117.655 111.797,117.575 111.400 C 117.483 110.937,117.513 110.729,117.659 110.819 C 117.798 110.905,117.845 110.744,117.780 110.404 C 117.722 110.098,117.773 109.848,117.894 109.848 C 118.015 109.848,118.066 109.595,118.007 109.285 C 117.941 108.941,118.003 108.723,118.166 108.723 C 118.330 108.723,118.377 108.550,118.289 108.272 C 118.206 108.011,118.249 107.822,118.391 107.822 C 118.539 107.822,118.580 107.601,118.494 107.259 C 118.402 106.890,118.447 106.697,118.627 106.697 C 118.787 106.697,118.842 106.545,118.760 106.331 C 118.682 106.129,118.709 105.851,118.819 105.711 C 118.929 105.572,119.153 104.765,119.319 103.917 C 119.538 102.789,119.667 102.488,119.797 102.792 C 119.900 103.031,119.920 102.800,119.844 102.251 C 119.766 101.679,119.803 101.294,119.937 101.294 C 120.060 101.294,120.110 101.103,120.049 100.870 C 119.988 100.636,120.039 100.383,120.162 100.307 C 120.285 100.231,120.332 99.966,120.268 99.718 C 120.201 99.464,120.261 99.268,120.406 99.268 C 120.566 99.268,120.609 99.059,120.520 98.706 C 120.439 98.382,120.476 98.143,120.607 98.143 C 120.733 98.143,120.786 97.952,120.725 97.718 C 120.664 97.485,120.714 97.231,120.837 97.155 C 120.960 97.079,121.008 96.815,120.943 96.567 C 120.878 96.320,120.924 96.117,121.045 96.117 C 121.166 96.117,121.394 95.360,121.552 94.435 C 121.710 93.509,121.917 92.800,122.011 92.858 C 122.105 92.916,122.237 92.818,122.305 92.641 C 122.373 92.464,122.307 92.270,122.160 92.210 C 121.984 92.138,121.969 92.035,122.116 91.914 C 122.240 91.811,122.368 91.327,122.401 90.838 C 122.434 90.349,122.535 89.894,122.626 89.825 C 122.717 89.757,122.816 89.303,122.846 88.816 C 122.876 88.329,123.015 87.859,123.156 87.772 C 123.297 87.685,123.339 87.497,123.251 87.354 C 123.162 87.210,123.190 86.971,123.312 86.822 C 123.434 86.673,123.761 85.385,124.038 83.962 C 124.316 82.538,124.655 81.297,124.792 81.204 C 124.972 81.083,124.965 80.985,124.767 80.857 C 124.615 80.759,123.465 78.657,122.210 76.186 C 119.624 71.093,119.752 71.306,119.752 72.107 M157.015 71.821 C 157.087 71.937,156.788 72.032,156.351 72.032 C 155.649 72.032,155.451 72.176,154.638 73.276 C 154.105 73.997,153.615 74.455,153.471 74.366 C 153.330 74.279,153.286 74.315,153.368 74.449 C 153.448 74.578,152.223 76.310,150.645 78.296 C 146.184 83.913,142.667 89.057,140.654 92.909 C 140.250 93.683,139.833 94.316,139.727 94.316 C 139.621 94.316,139.587 94.401,139.651 94.505 C 139.715 94.608,139.389 95.343,138.926 96.137 C 138.463 96.931,137.948 97.909,137.782 98.312 C 137.616 98.714,137.393 99.043,137.287 99.043 C 137.181 99.043,137.032 99.322,136.956 99.662 C 136.756 100.565,135.887 102.195,135.606 102.195 C 135.395 102.195,131.007 93.725,131.007 93.318 C 131.007 93.234,131.124 93.236,131.267 93.325 C 131.433 93.427,131.466 93.386,131.357 93.211 C 131.264 93.059,131.130 92.993,131.060 93.063 C 130.990 93.133,130.634 92.667,130.269 92.027 C 129.513 90.703,129.418 90.763,128.962 92.853 C 128.800 93.596,128.510 94.338,128.318 94.502 C 128.126 94.666,128.095 94.736,128.250 94.657 C 128.531 94.515,128.659 95.259,128.580 96.567 C 128.557 96.930,128.609 97.027,128.725 96.841 C 128.892 96.573,129.432 97.879,129.432 98.548 C 129.432 98.681,129.550 99.074,129.694 99.423 C 129.839 99.771,129.967 100.107,129.979 100.169 C 129.991 100.231,130.082 100.408,130.180 100.563 C 130.278 100.718,130.296 100.945,130.219 101.069 C 130.143 101.193,130.169 101.294,130.277 101.294 C 130.538 101.294,131.748 105.508,131.570 105.797 C 131.493 105.920,131.513 106.021,131.614 106.021 C 132.015 106.021,133.087 109.079,132.909 109.717 C 132.805 110.092,132.826 110.118,133.015 109.848 C 133.221 109.554,133.252 109.559,133.255 109.886 C 133.257 110.092,133.171 110.295,133.063 110.336 C 132.956 110.377,132.949 110.613,133.048 110.861 L 133.227 111.311 133.258 110.861 C 133.275 110.613,133.432 110.865,133.609 111.424 C 133.785 111.981,133.880 112.569,133.821 112.730 C 133.762 112.891,133.797 112.972,133.898 112.909 C 134.142 112.758,135.143 115.608,134.954 115.914 C 134.873 116.044,134.922 116.151,135.061 116.151 C 135.217 116.151,135.256 116.335,135.163 116.629 C 135.061 116.951,135.092 117.057,135.260 116.954 C 135.403 116.865,135.509 116.954,135.509 117.159 C 135.509 117.456,135.565 117.468,135.825 117.229 C 135.999 117.069,136.128 116.888,136.112 116.826 C 136.014 116.456,137.654 113.722,137.829 113.963 C 137.963 114.148,137.987 114.109,137.902 113.845 C 137.772 113.440,138.174 112.434,139.307 110.330 C 139.665 109.666,140.003 109.210,140.060 109.317 C 140.116 109.423,140.127 109.371,140.083 109.201 C 140.039 109.031,140.351 108.170,140.775 107.287 C 141.199 106.405,142.076 104.569,142.724 103.208 C 146.348 95.588,149.613 89.168,150.514 87.889 C 150.772 87.524,151.212 86.770,151.494 86.213 C 151.775 85.656,152.199 84.947,152.437 84.637 C 152.675 84.328,153.518 83.061,154.311 81.823 C 156.696 78.100,158.109 76.113,158.292 76.225 C 158.387 76.284,158.411 76.193,158.346 76.023 C 158.241 75.749,159.855 73.246,160.810 72.200 C 161.008 71.984,161.171 71.772,161.171 71.730 C 161.171 71.688,160.206 71.644,159.028 71.632 C 157.750 71.619,156.938 71.695,157.015 71.821 M226.929 95.881 L 226.959 119.752 228.617 119.752 C 229.573 119.752,230.276 119.657,230.276 119.527 C 230.276 119.382,233.019 119.302,238.055 119.302 C 242.333 119.302,245.787 119.378,245.729 119.471 C 245.672 119.564,246.147 119.599,246.785 119.548 C 247.725 119.474,247.839 119.424,247.383 119.289 C 246.865 119.135,246.882 119.118,247.608 119.065 C 248.637 118.991,248.726 118.972,249.522 118.645 C 249.893 118.492,250.374 118.354,250.591 118.337 C 250.808 118.320,250.985 118.220,250.985 118.116 C 250.985 118.011,251.086 117.988,251.210 118.064 C 251.334 118.141,251.435 118.107,251.435 117.989 C 251.435 117.872,251.685 117.712,251.991 117.636 C 252.297 117.559,252.657 117.292,252.790 117.042 C 252.930 116.782,253.149 116.655,253.303 116.743 C 253.452 116.829,253.496 116.813,253.401 116.708 C 253.195 116.482,254.548 115.025,254.964 115.025 C 255.188 115.025,256.346 113.168,256.508 112.549 C 256.524 112.487,256.666 112.133,256.823 111.761 C 256.980 111.390,257.220 110.453,257.356 109.679 C 257.493 108.905,257.685 108.272,257.783 108.272 C 257.882 108.272,257.963 107.310,257.963 106.134 C 257.963 104.858,257.872 103.995,257.738 103.995 C 257.614 103.995,257.513 103.732,257.513 103.409 C 257.513 102.576,256.864 100.149,256.483 99.558 C 256.307 99.284,256.162 98.893,256.162 98.690 C 256.162 98.486,255.630 97.805,254.980 97.176 C 254.330 96.546,254.001 96.165,254.249 96.329 C 254.496 96.492,254.368 96.309,253.964 95.921 C 253.559 95.534,253.078 95.217,252.895 95.217 C 252.711 95.217,252.560 95.127,252.560 95.018 C 252.560 94.908,252.358 94.766,252.110 94.701 C 251.451 94.529,251.560 94.153,252.392 93.733 C 253.223 93.313,254.136 92.532,254.136 92.242 C 254.136 92.059,254.998 90.735,255.277 90.490 C 256.509 89.407,257.034 81.059,255.916 80.339 C 255.646 80.165,255.648 80.104,255.931 79.922 C 256.217 79.738,256.211 79.689,255.889 79.566 C 255.683 79.487,255.570 79.279,255.638 79.103 C 255.705 78.928,255.637 78.784,255.487 78.784 C 255.332 78.784,255.272 78.633,255.348 78.435 C 255.424 78.235,255.387 78.144,255.259 78.223 C 255.137 78.299,255.037 78.244,255.037 78.101 C 255.037 77.958,254.824 77.543,254.565 77.179 C 254.306 76.815,254.068 76.344,254.037 76.131 C 254.006 75.919,253.849 75.746,253.687 75.746 C 253.526 75.746,253.315 75.543,253.218 75.295 C 253.121 75.048,253.035 74.939,253.027 75.053 C 253.018 75.168,252.761 75.026,252.455 74.739 C 252.149 74.452,251.946 74.141,252.003 74.048 C 252.111 73.875,251.456 73.508,251.154 73.571 C 251.061 73.591,250.985 73.506,250.985 73.382 C 250.985 73.258,250.909 73.175,250.816 73.198 C 250.555 73.261,248.734 72.653,248.734 72.502 C 248.734 72.256,247.758 72.223,237.310 72.117 L 226.900 72.010 226.929 95.881 M268.717 78.165 L 268.667 84.299 268.542 78.559 C 268.474 75.402,268.416 83.101,268.414 95.667 C 268.412 108.233,268.470 117.147,268.542 115.476 L 268.675 112.437 268.721 115.869 L 268.768 119.302 272.002 119.302 L 275.237 119.302 275.376 118.458 C 275.453 117.994,275.516 107.738,275.516 95.667 C 275.516 83.596,275.453 73.340,275.376 72.876 L 275.237 72.032 272.002 72.032 L 268.768 72.032 268.717 78.165 M198.362 76.024 C 197.709 76.070,197.223 76.186,197.282 76.281 C 197.369 76.422,194.668 77.098,194.260 77.038 C 194.198 77.029,194.021 77.127,193.866 77.255 C 193.711 77.384,193.585 77.414,193.585 77.321 C 193.585 77.229,193.458 77.254,193.303 77.377 C 193.149 77.500,192.652 77.719,192.200 77.865 C 191.747 78.011,191.109 78.378,190.781 78.682 C 190.453 78.986,189.982 79.235,189.733 79.235 C 189.485 79.235,189.344 79.336,189.420 79.460 C 189.497 79.584,189.392 79.685,189.186 79.685 C 188.981 79.685,188.501 80.014,188.120 80.416 C 187.738 80.819,187.501 81.021,187.592 80.867 C 187.870 80.397,187.581 80.548,186.793 81.286 C 184.480 83.450,183.455 84.530,183.455 84.805 C 183.455 84.975,183.367 85.059,183.259 84.993 C 183.054 84.866,181.204 87.353,181.204 87.757 C 181.204 87.886,181.070 88.072,180.905 88.171 C 180.457 88.441,179.444 90.561,178.695 92.797 C 178.540 93.261,178.320 93.641,178.207 93.641 C 178.093 93.641,178.048 93.891,178.106 94.196 C 178.165 94.501,178.124 94.780,178.015 94.817 C 176.989 95.159,177.470 106.021,178.511 106.021 C 178.645 106.021,178.692 106.123,178.616 106.246 C 178.539 106.370,178.568 106.472,178.679 106.472 C 178.790 106.472,179.019 106.902,179.188 107.428 C 179.557 108.582,180.086 109.381,180.486 109.391 C 180.648 109.395,180.743 109.474,180.697 109.567 C 180.650 109.660,180.910 110.039,181.275 110.411 C 181.639 110.782,181.858 110.944,181.761 110.770 C 181.644 110.559,181.672 110.507,181.845 110.614 C 181.988 110.703,182.105 110.927,182.105 111.113 C 182.105 111.298,182.195 111.394,182.306 111.326 C 182.417 111.257,182.566 111.354,182.638 111.540 C 182.709 111.726,182.846 111.860,182.943 111.837 C 183.198 111.776,184.356 112.368,184.356 112.559 C 184.356 113.660,193.613 114.026,194.294 112.952 C 194.437 112.727,194.481 112.737,194.489 112.999 C 194.497 113.273,194.556 113.263,194.798 112.943 C 195.103 112.542,195.516 112.381,195.286 112.753 C 195.217 112.866,195.361 112.905,195.608 112.840 C 195.854 112.776,196.000 112.633,195.932 112.524 C 195.821 112.343,196.138 112.230,196.567 112.297 C 196.660 112.312,196.736 112.223,196.736 112.099 C 196.736 111.975,196.818 111.899,196.917 111.930 C 197.082 111.982,197.975 111.596,199.437 110.842 C 199.747 110.682,199.969 110.488,199.932 110.410 C 199.867 110.274,200.992 109.294,201.233 109.277 C 201.607 109.252,202.351 108.667,202.305 108.434 C 202.275 108.283,202.385 108.188,202.549 108.222 C 202.713 108.256,202.791 108.193,202.723 108.083 C 202.597 107.878,203.266 107.146,203.512 107.219 C 203.737 107.286,204.839 105.870,204.683 105.715 C 204.604 105.636,204.658 105.571,204.802 105.571 C 204.947 105.571,205.065 105.428,205.065 105.252 C 205.065 105.077,205.324 104.745,205.640 104.514 C 205.957 104.284,206.240 103.946,206.270 103.764 C 206.300 103.582,206.468 103.180,206.643 102.870 C 206.819 102.560,206.967 102.257,206.972 102.195 C 207.016 101.698,207.845 99.966,207.994 100.058 C 208.792 100.551,209.298 92.243,208.588 90.318 C 208.210 89.292,208.216 89.319,208.216 88.788 C 208.216 88.595,208.131 88.490,208.027 88.554 C 207.922 88.619,207.611 88.220,207.335 87.667 C 207.060 87.115,206.734 86.663,206.611 86.663 C 206.489 86.663,206.443 86.576,206.508 86.469 C 206.657 86.229,204.941 84.665,204.234 84.396 C 203.948 84.287,203.714 84.088,203.714 83.954 C 203.714 83.820,203.620 83.768,203.505 83.840 C 203.389 83.911,203.239 83.878,203.170 83.766 C 203.101 83.655,202.587 83.495,202.029 83.411 C 201.470 83.327,201.013 83.151,201.013 83.018 C 201.013 82.865,200.633 82.820,199.970 82.895 C 199.329 82.968,199.047 82.937,199.238 82.815 C 199.469 82.669,199.415 82.617,199.030 82.615 C 198.740 82.613,198.572 82.711,198.649 82.836 C 198.726 82.960,198.631 83.061,198.438 83.061 C 198.245 83.061,198.087 82.983,198.087 82.887 C 198.087 82.790,197.676 82.751,197.174 82.799 C 196.671 82.847,196.320 82.945,196.392 83.017 C 196.498 83.124,195.579 83.426,193.922 83.830 C 193.723 83.878,193.124 84.139,191.398 84.927 C 191.123 85.053,190.945 85.230,191.002 85.323 C 191.059 85.415,190.980 85.553,190.826 85.629 C 189.808 86.133,189.098 86.712,188.434 87.581 C 188.015 88.128,187.587 88.576,187.482 88.576 C 187.246 88.576,186.521 89.588,186.460 90.001 C 186.436 90.168,186.256 90.480,186.061 90.696 C 185.866 90.911,185.706 91.246,185.706 91.440 C 185.706 91.634,185.568 91.845,185.400 91.910 C 185.231 91.974,185.038 92.238,184.971 92.497 C 184.903 92.755,184.940 92.910,185.052 92.840 C 185.164 92.771,185.256 92.821,185.256 92.952 C 185.256 93.083,185.117 93.191,184.948 93.191 C 184.543 93.191,184.306 94.552,184.236 97.268 C 184.169 99.888,184.724 102.420,185.365 102.420 C 185.523 102.420,185.772 102.709,185.918 103.063 C 186.065 103.417,186.497 103.937,186.878 104.219 C 187.259 104.501,187.510 104.633,187.436 104.512 C 187.361 104.391,187.760 104.515,188.323 104.786 C 189.944 105.567,192.278 105.498,195.048 104.586 C 196.055 104.254,196.961 103.707,196.961 103.430 C 196.961 103.246,197.072 103.095,197.209 103.095 C 197.345 103.095,197.736 102.795,198.079 102.428 C 198.422 102.061,198.752 101.810,198.813 101.870 C 198.873 101.931,199.064 101.801,199.236 101.581 C 199.521 101.218,199.514 101.210,199.156 101.491 C 198.887 101.702,198.762 101.717,198.762 101.540 C 198.762 101.397,198.939 101.214,199.156 101.132 C 199.887 100.858,201.013 98.231,201.013 96.800 C 201.013 96.534,201.114 96.378,201.238 96.455 C 201.378 96.541,201.463 96.119,201.463 95.342 C 201.463 94.654,201.385 94.091,201.290 94.091 C 201.195 94.091,200.875 93.481,200.579 92.736 C 200.183 91.738,199.902 91.346,199.516 91.249 C 199.227 91.176,199.038 91.039,199.097 90.945 C 199.396 90.459,195.915 90.356,194.811 90.817 C 194.005 91.154,193.968 91.165,193.585 91.165 C 193.461 91.165,193.360 91.278,193.360 91.417 C 193.360 91.703,192.097 93.203,191.965 93.072 C 191.918 93.025,191.756 93.184,191.605 93.426 C 191.387 93.775,191.388 93.867,191.613 93.870 C 191.811 93.872,191.798 93.935,191.570 94.079 C 190.781 94.579,191.137 98.502,191.957 98.331 C 192.047 98.312,192.298 98.374,192.515 98.469 C 192.731 98.563,193.301 98.603,193.781 98.557 C 194.403 98.498,194.642 98.558,194.612 98.765 C 194.589 98.925,194.496 99.049,194.407 99.041 C 194.317 99.034,194.102 99.169,193.929 99.342 C 193.194 100.077,189.758 99.723,189.758 98.912 C 189.758 98.846,189.859 98.854,189.983 98.931 C 190.107 99.007,190.208 98.966,190.208 98.839 C 190.208 98.713,190.014 98.505,189.776 98.378 C 188.842 97.878,188.633 95.663,189.311 93.464 C 189.524 92.776,189.668 92.582,189.816 92.789 C 189.958 92.989,189.989 92.927,189.915 92.586 C 189.847 92.276,189.935 92.045,190.153 91.962 C 190.343 91.889,190.442 91.774,190.374 91.706 C 190.306 91.638,190.621 91.221,191.073 90.780 C 191.526 90.339,191.694 90.117,191.446 90.286 C 191.001 90.591,191.000 90.589,191.426 90.090 C 191.663 89.813,191.905 89.635,191.964 89.694 C 192.023 89.754,192.458 89.496,192.931 89.122 C 193.403 88.748,193.997 88.402,194.251 88.353 C 194.903 88.227,195.189 88.017,195.038 87.773 C 194.967 87.658,195.016 87.563,195.147 87.563 C 195.278 87.563,195.385 87.684,195.385 87.831 C 195.385 87.989,195.502 87.949,195.667 87.737 C 196.270 86.960,199.646 87.064,200.467 87.886 C 200.778 88.196,200.890 88.213,201.042 87.974 C 201.186 87.747,201.232 87.770,201.235 88.070 C 201.236 88.286,201.358 88.464,201.504 88.464 C 201.766 88.464,203.713 90.423,203.716 90.690 C 203.716 90.765,203.851 91.084,204.014 91.397 C 204.744 92.795,204.992 96.505,204.450 97.918 C 204.378 98.104,204.279 98.509,204.229 98.818 C 204.179 99.128,203.992 99.605,203.813 99.880 C 203.635 100.154,203.487 100.559,203.486 100.780 C 203.483 101.122,203.450 101.131,203.264 100.844 C 203.037 100.492,203.037 100.491,202.949 101.569 C 202.936 101.719,202.698 102.089,202.420 102.389 C 202.141 102.690,201.913 103.048,201.913 103.186 C 201.913 103.323,201.562 103.728,201.133 104.086 C 200.703 104.444,200.407 104.826,200.474 104.935 C 200.541 105.043,200.466 105.104,200.306 105.070 C 200.147 105.036,199.912 105.237,199.785 105.517 C 199.658 105.797,199.362 106.086,199.127 106.161 C 198.622 106.321,196.617 107.818,196.888 107.833 C 198.036 107.896,192.669 109.623,191.323 109.623 C 190.943 109.623,190.657 109.744,190.655 109.904 C 190.652 110.112,190.608 110.117,190.485 109.924 C 190.393 109.780,189.762 109.635,189.082 109.602 C 187.536 109.528,186.386 109.232,185.875 108.778 C 185.658 108.585,185.481 108.497,185.481 108.581 C 185.481 108.969,184.121 107.973,183.683 107.263 C 183.413 106.826,183.107 106.521,183.003 106.585 C 182.763 106.734,181.988 105.635,181.809 104.891 C 181.733 104.579,181.461 104.098,181.204 103.822 C 180.947 103.546,180.839 103.320,180.963 103.320 C 181.259 103.320,180.986 102.601,180.572 102.290 C 179.884 101.774,180.059 93.549,180.749 93.975 C 180.847 94.036,180.979 93.890,181.042 93.649 C 181.105 93.409,181.041 93.165,180.899 93.107 C 180.757 93.049,180.825 92.993,181.049 92.983 C 181.273 92.974,181.396 92.868,181.322 92.750 C 181.249 92.631,181.294 92.352,181.422 92.131 C 181.766 91.535,182.239 90.298,182.302 89.830 C 182.317 89.715,182.683 89.247,183.114 88.790 C 183.545 88.333,183.846 87.875,183.783 87.773 C 183.720 87.671,184.127 87.129,184.687 86.568 C 185.706 85.550,186.056 84.987,185.312 85.562 C 184.984 85.817,184.989 85.785,185.342 85.370 C 185.575 85.097,185.930 84.821,186.130 84.756 C 186.330 84.691,186.685 84.309,186.918 83.906 C 187.152 83.502,187.387 83.297,187.441 83.448 C 187.501 83.613,187.886 83.368,188.415 82.829 C 188.896 82.338,189.429 81.936,189.599 81.936 C 189.769 81.936,190.344 81.533,190.877 81.041 C 191.410 80.549,191.914 80.189,191.998 80.241 C 192.081 80.292,192.447 80.138,192.811 79.899 C 193.175 79.659,193.703 79.462,193.986 79.461 C 194.268 79.460,194.558 79.308,194.629 79.122 C 194.700 78.936,194.855 78.784,194.973 78.784 C 195.091 78.784,195.130 78.876,195.061 78.989 C 194.991 79.101,195.136 79.140,195.383 79.076 C 195.629 79.011,195.775 78.869,195.707 78.759 C 195.639 78.649,195.717 78.552,195.879 78.542 C 196.205 78.523,196.569 78.441,197.411 78.198 C 197.721 78.109,199.443 78.017,201.238 77.993 C 205.357 77.940,205.065 78.000,205.065 77.209 C 205.065 76.600,204.992 76.532,204.333 76.518 C 203.753 76.505,203.693 76.466,204.042 76.330 C 204.335 76.215,203.891 76.107,202.714 76.008 C 200.968 75.860,200.701 75.861,198.362 76.024 M243.919 78.744 C 243.856 78.846,244.323 78.922,244.956 78.913 C 245.692 78.903,246.141 78.999,246.202 79.180 C 246.254 79.335,246.389 79.405,246.502 79.335 C 246.615 79.265,246.708 79.332,246.708 79.484 C 246.708 79.636,246.771 79.697,246.848 79.620 C 247.366 79.102,249.547 82.053,249.464 83.157 C 249.445 83.402,249.538 83.733,249.670 83.892 C 249.808 84.059,249.848 84.538,249.765 85.028 C 249.686 85.494,249.586 86.078,249.544 86.325 C 249.385 87.255,248.384 89.454,247.965 89.794 C 247.382 90.268,245.628 91.135,245.504 91.011 C 245.429 90.937,245.228 90.992,245.057 91.134 C 244.877 91.284,244.450 91.332,244.039 91.250 C 243.581 91.159,243.331 91.198,243.331 91.362 C 243.331 91.542,241.942 91.615,238.548 91.614 L 233.765 91.613 233.738 85.086 L 233.711 78.559 238.872 78.559 C 241.711 78.559,243.982 78.643,243.919 78.744 M158.020 88.800 C 157.877 89.232,157.623 89.662,157.455 89.756 C 157.288 89.850,157.151 90.006,157.152 90.104 C 157.156 90.580,155.893 92.930,155.698 92.810 C 155.570 92.730,155.544 92.785,155.638 92.937 C 155.729 93.085,155.353 94.034,154.789 95.077 C 153.843 96.827,153.790 97.015,153.988 97.899 C 154.105 98.421,154.148 98.933,154.083 99.039 C 154.018 99.144,154.073 99.266,154.205 99.310 C 154.419 99.382,154.610 100.088,154.680 101.069 C 154.693 101.255,154.793 101.521,154.902 101.660 C 155.011 101.799,155.037 102.077,154.960 102.279 C 154.878 102.493,154.933 102.645,155.093 102.645 C 155.273 102.645,155.318 102.839,155.226 103.208 C 155.137 103.560,155.180 103.770,155.340 103.770 C 155.485 103.770,155.545 103.966,155.478 104.221 C 155.413 104.468,155.454 104.671,155.568 104.671 C 155.683 104.671,155.712 104.928,155.633 105.243 C 155.541 105.611,155.612 105.952,155.833 106.199 C 156.022 106.411,156.351 107.648,156.564 108.948 C 156.777 110.248,157.048 111.433,157.167 111.583 C 157.285 111.732,157.322 111.953,157.247 112.074 C 157.172 112.194,157.215 112.357,157.341 112.435 C 157.467 112.513,157.509 112.824,157.433 113.126 C 157.348 113.465,157.392 113.675,157.549 113.675 C 157.707 113.675,157.749 113.886,157.661 114.237 C 157.573 114.589,157.616 114.800,157.774 114.800 C 157.936 114.800,157.974 115.016,157.878 115.397 C 157.773 115.816,157.805 115.946,157.986 115.833 C 158.150 115.732,158.250 115.863,158.261 116.194 C 158.271 116.480,158.318 116.866,158.365 117.051 C 158.790 118.709,158.877 119.190,158.780 119.346 C 158.718 119.446,160.382 119.527,162.477 119.527 L 166.285 119.527 166.186 118.908 C 166.131 118.568,166.028 118.137,165.957 117.952 C 165.886 117.766,165.850 117.437,165.877 117.220 C 165.904 117.003,165.828 116.826,165.708 116.826 C 165.588 116.826,165.543 116.624,165.607 116.376 C 165.678 116.107,165.614 115.926,165.449 115.926 C 165.267 115.926,165.222 115.734,165.315 115.363 C 165.396 115.038,165.359 114.800,165.227 114.800 C 165.100 114.800,164.997 114.642,164.997 114.449 C 164.997 114.256,165.097 114.160,165.220 114.236 C 165.347 114.315,165.385 114.225,165.309 114.025 C 165.235 113.834,165.100 113.724,165.008 113.780 C 164.873 113.864,164.405 111.835,164.206 110.298 C 164.119 109.628,163.806 108.605,163.612 108.357 C 163.503 108.218,163.477 107.940,163.554 107.738 C 163.637 107.523,163.581 107.372,163.419 107.372 C 163.255 107.372,163.191 107.191,163.262 106.922 C 163.326 106.674,163.277 106.472,163.151 106.472 C 163.026 106.472,162.979 106.326,163.047 106.148 C 163.115 105.971,163.050 105.776,162.902 105.716 C 162.709 105.637,162.706 105.602,162.894 105.589 C 163.041 105.579,163.103 105.376,163.037 105.124 C 162.973 104.877,162.851 104.718,162.767 104.771 C 162.683 104.823,162.426 103.808,162.197 102.517 C 161.967 101.226,161.682 100.169,161.563 100.169 C 161.445 100.169,161.411 100.004,161.488 99.803 C 161.565 99.601,161.515 99.300,161.377 99.134 C 161.239 98.968,161.111 98.424,161.092 97.926 C 161.073 97.428,160.970 97.019,160.863 97.019 C 160.756 97.018,160.716 96.767,160.774 96.462 C 160.839 96.121,160.792 95.960,160.653 96.046 C 160.507 96.137,160.477 95.928,160.569 95.466 C 160.649 95.069,160.634 94.793,160.537 94.853 C 160.440 94.913,160.175 94.032,159.949 92.895 C 159.722 91.758,159.434 90.698,159.309 90.540 C 159.183 90.383,159.145 90.189,159.223 90.111 C 159.302 90.032,159.254 89.834,159.117 89.669 C 158.981 89.504,158.928 89.217,159.000 89.029 C 159.072 88.842,159.032 88.689,158.912 88.689 C 158.793 88.689,158.694 88.537,158.694 88.351 C 158.694 87.730,158.282 88.004,158.020 88.800 M246.059 98.440 C 248.368 98.997,251.153 102.138,250.407 103.344 C 250.339 103.455,250.373 103.545,250.483 103.545 C 250.860 103.545,250.615 108.363,250.195 109.196 C 248.723 112.116,247.319 112.592,239.792 112.724 L 233.890 112.827 233.827 105.466 C 233.793 101.417,233.782 98.088,233.802 98.068 C 234.012 97.861,245.047 98.196,246.059 98.440 " stroke="none" fill="#14045c" fill-rule="evenodd"></path><path id="path2" d="M159.040 71.595 C 159.199 71.851,159.820 71.878,159.820 71.629 C 159.820 71.532,159.615 71.437,159.365 71.418 C 159.115 71.399,158.969 71.479,159.040 71.595 M243.331 71.857 C 243.331 71.953,243.914 72.020,244.626 72.005 C 246.000 71.978,245.865 71.878,244.288 71.756 C 243.762 71.715,243.331 71.761,243.331 71.857 M268.402 71.852 C 268.348 71.939,269.928 72.040,271.913 72.077 C 274.213 72.120,275.521 72.062,275.521 71.919 C 275.520 71.662,268.559 71.597,268.402 71.852 M160.449 72.708 C 160.239 73.079,160.119 73.382,160.184 73.382 C 160.384 73.382,160.850 72.840,161.007 72.425 C 161.250 71.784,160.864 71.979,160.449 72.708 M154.303 73.305 C 154.087 73.634,153.616 74.191,153.256 74.543 C 152.896 74.895,152.699 75.183,152.819 75.183 C 153.019 75.183,154.355 73.651,154.734 72.988 C 155.038 72.455,154.694 72.708,154.303 73.305 M159.002 74.904 C 158.310 75.855,158.200 76.083,158.434 76.083 C 158.662 76.083,159.671 74.509,159.532 74.369 C 159.487 74.325,159.248 74.565,159.002 74.904 M151.124 77.158 C 150.860 77.371,150.516 77.800,150.361 78.109 L 150.078 78.672 150.616 78.095 C 151.812 76.812,152.017 76.434,151.124 77.158 M236.534 78.952 C 237.810 78.993,239.836 78.993,241.036 78.952 C 242.237 78.912,241.193 78.879,238.717 78.879 C 236.241 78.879,235.259 78.912,236.534 78.952 M149.163 79.685 C 148.832 80.056,148.657 80.360,148.773 80.360 C 148.889 80.360,149.201 80.056,149.465 79.685 C 149.730 79.313,149.905 79.010,149.856 79.010 C 149.806 79.010,149.494 79.313,149.163 79.685 M124.250 79.834 C 124.378 79.897,124.438 80.021,124.383 80.109 C 124.329 80.197,124.383 80.416,124.504 80.596 C 124.673 80.846,124.709 80.795,124.658 80.378 C 124.622 80.078,124.463 79.807,124.305 79.776 C 124.147 79.744,124.122 79.770,124.250 79.834 M154.663 81.542 C 154.403 81.944,153.937 82.618,153.628 83.038 C 153.319 83.459,153.070 83.915,153.074 84.051 C 153.078 84.188,153.197 84.098,153.340 83.852 C 153.483 83.606,153.764 83.228,153.964 83.013 C 154.382 82.564,155.400 80.810,155.242 80.810 C 155.184 80.810,154.924 81.140,154.663 81.542 M146.929 82.428 C 146.586 82.813,146.366 83.188,146.441 83.263 C 146.575 83.397,147.048 82.862,147.464 82.105 C 147.769 81.549,147.645 81.624,146.929 82.428 M145.592 84.236 C 145.104 84.987,144.709 85.763,144.813 85.763 C 144.977 85.763,146.125 83.923,146.024 83.822 C 145.969 83.767,145.775 83.954,145.592 84.236 M249.466 84.750 C 249.468 85.245,249.514 85.421,249.568 85.141 C 249.622 84.861,249.620 84.456,249.564 84.240 C 249.507 84.025,249.463 84.254,249.466 84.750 M150.245 88.745 L 149.888 89.477 150.347 88.914 C 150.789 88.372,150.933 88.014,150.709 88.014 C 150.650 88.014,150.442 88.343,150.245 88.745 M247.979 89.244 C 247.749 89.418,247.602 89.682,247.651 89.831 C 247.703 89.986,247.907 89.848,248.130 89.507 C 248.573 88.831,248.558 88.805,247.979 89.244 M238.267 91.390 L 233.765 91.517 238.310 91.566 C 241.151 91.597,242.907 91.531,242.994 91.390 C 243.070 91.266,243.051 91.187,242.951 91.214 C 242.851 91.241,240.743 91.320,238.267 91.390 M128.634 92.950 C 128.705 93.065,128.661 93.223,128.535 93.301 C 128.227 93.491,128.243 94.091,128.555 94.091 C 128.692 94.091,128.747 93.942,128.678 93.761 C 128.608 93.579,128.648 93.370,128.766 93.297 C 129.056 93.118,129.040 92.741,128.743 92.741 C 128.612 92.741,128.563 92.835,128.634 92.950 M155.024 93.981 C 154.818 94.413,154.696 94.766,154.753 94.766 C 154.907 94.766,155.590 93.388,155.487 93.285 C 155.439 93.236,155.230 93.550,155.024 93.981 M131.321 93.997 C 131.396 94.193,131.458 94.395,131.458 94.447 C 131.458 94.499,131.549 94.541,131.662 94.541 C 131.774 94.541,131.813 94.339,131.748 94.091 C 131.683 93.844,131.530 93.641,131.407 93.641 C 131.285 93.641,131.246 93.801,131.321 93.997 M128.231 94.706 C 128.039 95.016,128.223 96.124,128.514 96.414 C 128.718 96.618,128.743 96.446,128.624 95.667 C 128.451 94.538,128.405 94.425,128.231 94.706 M132.808 96.890 C 132.808 97.203,133.824 99.043,133.997 99.043 C 134.106 99.043,133.986 98.704,133.730 98.290 C 133.474 97.876,133.303 97.496,133.351 97.446 C 133.399 97.396,133.296 97.224,133.123 97.065 C 132.950 96.905,132.808 96.827,132.808 96.890 M134.400 99.831 C 134.400 99.955,134.545 100.310,134.721 100.619 C 134.898 100.929,135.043 101.080,135.043 100.957 C 135.043 100.833,134.898 100.478,134.721 100.169 C 134.545 99.859,134.400 99.707,134.400 99.831 M249.502 101.262 C 249.567 101.368,249.728 101.736,249.859 102.081 C 249.990 102.425,250.152 102.652,250.220 102.584 C 250.353 102.451,249.699 101.069,249.503 101.069 C 249.437 101.069,249.436 101.156,249.502 101.262 M130.232 101.874 C 130.267 102.186,130.430 102.604,130.595 102.803 C 130.760 103.002,130.861 103.208,130.820 103.261 C 130.778 103.314,130.818 103.425,130.908 103.508 C 130.997 103.590,130.998 103.354,130.910 102.983 C 130.821 102.611,130.661 102.275,130.553 102.236 C 130.445 102.197,130.409 102.030,130.473 101.865 C 130.536 101.700,130.494 101.507,130.379 101.436 C 130.264 101.365,130.198 101.562,130.232 101.874 M142.381 103.984 C 141.959 104.800,141.943 105.023,142.334 104.631 C 142.617 104.347,142.990 103.320,142.810 103.320 C 142.763 103.320,142.569 103.619,142.381 103.984 M140.739 107.597 C 140.583 107.846,140.555 108.047,140.677 108.047 C 140.797 108.047,141.004 107.845,141.137 107.597 C 141.269 107.349,141.297 107.147,141.199 107.147 C 141.100 107.147,140.893 107.349,140.739 107.597 M249.766 109.454 L 249.414 110.186 249.862 109.654 C 250.108 109.362,250.310 109.033,250.310 108.923 C 250.310 108.538,250.115 108.728,249.766 109.454 M137.892 113.144 C 137.703 113.635,137.953 113.864,138.219 113.443 C 138.485 113.022,138.491 112.774,138.235 112.774 C 138.124 112.774,137.970 112.941,137.892 113.144 M136.896 115.373 C 136.519 116.200,136.591 116.377,136.999 115.624 C 137.189 115.273,137.303 114.943,137.252 114.892 C 137.200 114.840,137.040 115.057,136.896 115.373 M230.501 119.532 C 230.501 119.830,244.891 119.818,245.362 119.520 C 245.573 119.386,242.903 119.308,238.098 119.306 C 233.072 119.303,230.501 119.380,230.501 119.532 M268.317 119.527 C 268.317 119.651,268.621 119.752,268.993 119.752 C 269.364 119.752,269.668 119.651,269.668 119.527 C 269.668 119.403,269.364 119.302,268.993 119.302 C 268.621 119.302,268.317 119.403,268.317 119.527 M271.082 119.468 C 271.673 119.514,272.585 119.514,273.108 119.467 C 273.630 119.419,273.146 119.381,272.032 119.382 C 270.917 119.383,270.490 119.421,271.082 119.468 M274.395 119.527 C 274.395 119.651,274.648 119.752,274.958 119.752 C 275.267 119.752,275.521 119.651,275.521 119.527 C 275.521 119.403,275.267 119.302,274.958 119.302 C 274.648 119.302,274.395 119.403,274.395 119.527 M160.788 119.920 C 161.877 119.962,163.599 119.961,164.614 119.920 C 165.630 119.878,164.738 119.844,162.634 119.844 C 160.529 119.845,159.698 119.879,160.788 119.920 " stroke="none" fill="#2c1f6c" fill-rule="evenodd"></path><path id="path3" d="" stroke="none" fill="#34246c" fill-rule="evenodd"></path><path id="path4" d="M227.114 71.817 C 226.911 71.946,229.930 72.026,235.059 72.028 C 240.361 72.030,243.331 71.952,243.331 71.809 C 243.331 71.521,227.571 71.529,227.114 71.817 M270.512 71.747 C 271.162 71.793,272.226 71.793,272.876 71.747 C 273.526 71.702,272.994 71.665,271.694 71.665 C 270.394 71.665,269.862 71.702,270.512 71.747 M268.499 72.200 C 268.461 72.293,268.485 75.053,268.551 78.334 L 268.673 84.299 268.720 78.165 C 268.763 72.638,268.726 71.650,268.499 72.200 M158.887 74.789 C 158.605 75.191,158.532 75.395,158.724 75.241 C 158.916 75.087,159.156 75.037,159.258 75.129 C 159.359 75.220,159.366 75.164,159.274 75.004 C 159.181 74.844,159.228 74.565,159.378 74.385 C 159.528 74.205,159.594 74.057,159.525 74.057 C 159.457 74.057,159.170 74.387,158.887 74.789 M123.129 78.109 C 123.382 78.604,123.639 79.010,123.701 79.010 C 123.763 79.010,123.607 78.604,123.354 78.109 C 123.101 77.614,122.844 77.209,122.782 77.209 C 122.720 77.209,122.876 77.614,123.129 78.109 M150.365 78.391 C 150.034 78.843,149.979 79.000,150.222 78.803 C 150.592 78.503,151.150 77.659,150.979 77.659 C 150.936 77.659,150.660 77.988,150.365 78.391 M156.038 79.068 C 155.904 79.230,155.875 79.494,155.975 79.655 C 156.106 79.867,156.193 79.806,156.291 79.432 C 156.455 78.805,156.365 78.675,156.038 79.068 M233.728 80.360 C 233.728 81.289,233.768 81.669,233.816 81.204 C 233.865 80.740,233.865 79.980,233.816 79.516 C 233.768 79.052,233.728 79.432,233.728 80.360 M148.262 80.754 C 148.190 80.971,147.957 81.401,147.743 81.711 C 147.331 82.308,147.396 82.250,148.440 81.092 C 148.922 80.557,149.004 80.360,148.746 80.360 C 148.551 80.360,148.334 80.537,148.262 80.754 M154.192 81.992 C 153.860 82.445,153.806 82.602,154.049 82.405 C 154.418 82.105,154.976 81.261,154.805 81.261 C 154.762 81.261,154.486 81.590,154.192 81.992 M226.961 82.386 C 226.961 82.943,227.004 83.171,227.058 82.893 C 227.112 82.614,227.112 82.158,227.058 81.880 C 227.004 81.601,226.961 81.829,226.961 82.386 M146.414 83.381 C 146.174 83.556,146.037 83.759,146.109 83.832 C 146.182 83.905,146.426 83.761,146.650 83.513 C 147.129 82.985,147.030 82.930,146.414 83.381 M187.124 83.562 C 186.613 84.222,186.582 84.489,187.070 84.024 C 187.358 83.749,187.539 83.468,187.470 83.400 C 187.402 83.331,187.246 83.405,187.124 83.562 M249.520 84.865 C 249.520 85.461,249.594 85.831,249.686 85.687 C 249.904 85.344,249.907 84.018,249.690 83.885 C 249.598 83.828,249.521 84.269,249.520 84.865 M152.481 84.610 C 151.651 85.642,151.238 86.588,151.617 86.588 C 151.796 86.588,151.949 86.529,151.959 86.457 C 152.050 85.761,152.209 85.366,152.622 84.807 C 153.233 83.980,153.117 83.819,152.481 84.610 M144.264 86.434 C 143.844 86.927,143.497 87.408,143.492 87.503 C 143.488 87.598,143.353 87.912,143.193 88.202 C 142.511 89.431,143.146 88.752,144.118 87.212 C 145.320 85.308,145.348 85.161,144.264 86.434 M150.547 87.845 C 149.539 89.434,149.226 90.039,149.409 90.039 C 149.523 90.039,149.929 89.432,150.312 88.689 C 151.020 87.316,151.128 86.927,150.547 87.845 M142.117 89.987 C 141.975 90.078,141.433 90.962,140.913 91.953 C 140.393 92.943,139.864 93.880,139.737 94.035 C 139.610 94.190,139.599 94.316,139.713 94.316 C 139.826 94.316,140.251 93.683,140.656 92.909 C 141.061 92.136,141.640 91.123,141.943 90.658 C 142.521 89.773,142.535 89.718,142.117 89.987 M129.224 91.109 C 129.235 91.346,129.287 91.390,129.356 91.220 C 129.419 91.064,129.563 90.994,129.676 91.064 C 129.789 91.134,129.882 91.084,129.882 90.953 C 129.882 90.822,129.730 90.715,129.544 90.715 C 129.358 90.715,129.215 90.892,129.224 91.109 M147.587 93.303 C 147.276 93.860,147.091 94.316,147.176 94.316 C 147.367 94.316,147.840 93.575,148.121 92.838 C 148.445 91.985,148.209 92.191,147.587 93.303 M131.683 94.836 C 131.683 94.998,131.833 95.327,132.017 95.568 C 132.323 95.967,132.331 95.942,132.108 95.273 C 131.853 94.509,131.683 94.334,131.683 94.836 M154.530 95.217 C 154.338 95.588,154.232 95.892,154.293 95.892 C 154.355 95.892,154.563 95.588,154.755 95.217 C 154.947 94.845,155.054 94.541,154.992 94.541 C 154.930 94.541,154.722 94.845,154.530 95.217 M139.156 95.262 C 139.007 95.410,138.886 95.655,138.886 95.806 C 138.886 95.956,138.759 96.131,138.604 96.193 C 138.389 96.280,138.387 96.311,138.599 96.324 C 138.750 96.334,139.031 96.038,139.223 95.667 C 139.599 94.940,139.582 94.836,139.156 95.262 M146.096 96.060 C 145.138 98.103,144.764 99.043,144.910 99.037 C 145.084 99.030,146.575 95.628,146.456 95.509 C 146.418 95.471,146.256 95.719,146.096 96.060 M137.485 98.383 C 137.277 98.746,137.186 99.043,137.284 99.043 C 137.469 99.043,138.055 97.913,137.933 97.791 C 137.895 97.753,137.694 98.019,137.485 98.383 M161.117 98.491 C 161.176 98.798,161.299 99.096,161.390 99.152 C 161.481 99.209,161.508 99.003,161.449 98.696 C 161.390 98.388,161.267 98.090,161.176 98.034 C 161.085 97.978,161.059 98.183,161.117 98.491 M134.080 99.719 C 134.265 100.090,134.455 100.394,134.501 100.394 C 134.548 100.394,134.480 100.090,134.350 99.719 C 134.221 99.347,134.031 99.043,133.929 99.043 C 133.827 99.043,133.895 99.347,134.080 99.719 M198.737 101.576 C 198.473 102.079,198.474 102.080,198.954 101.653 C 199.491 101.177,199.540 101.069,199.220 101.069 C 199.101 101.069,198.883 101.297,198.737 101.576 M143.054 102.413 C 142.664 103.182,142.587 103.493,142.807 103.408 C 143.137 103.282,143.299 102.985,143.621 101.913 C 143.902 100.976,143.684 101.168,143.054 102.413 M132.325 107.912 C 132.529 108.605,132.765 109.172,132.851 109.172 C 133.025 109.173,132.392 107.139,132.126 106.844 C 132.031 106.739,132.121 107.220,132.325 107.912 M138.446 111.855 C 138.308 112.113,138.289 112.324,138.404 112.324 C 138.635 112.324,138.954 111.642,138.797 111.485 C 138.742 111.430,138.584 111.596,138.446 111.855 M226.981 113.562 C 226.982 114.800,227.020 115.278,227.065 114.624 C 227.111 113.970,227.111 112.957,227.064 112.373 C 227.018 111.789,226.981 112.324,226.981 113.562 M236.422 112.717 C 237.884 112.757,240.214 112.757,241.600 112.717 C 242.985 112.678,241.790 112.646,238.942 112.646 C 236.095 112.646,234.961 112.678,236.422 112.717 M268.534 115.813 C 268.468 117.670,268.443 119.232,268.478 119.283 C 268.711 119.623,268.772 118.732,268.718 115.788 L 268.655 112.437 268.534 115.813 M134.263 113.844 C 134.347 114.060,134.472 114.516,134.540 114.856 C 134.609 115.197,134.748 115.476,134.848 115.476 C 134.949 115.476,134.876 115.020,134.687 114.463 C 134.497 113.905,134.290 113.450,134.226 113.450 C 134.162 113.450,134.179 113.627,134.263 113.844 M253.788 115.964 C 253.107 116.683,253.053 116.786,253.558 116.406 C 254.148 115.962,254.961 115.025,254.757 115.025 C 254.714 115.025,254.277 115.448,253.788 115.964 M136.331 116.151 C 136.146 116.522,136.078 116.826,136.180 116.826 C 136.282 116.826,136.472 116.522,136.601 116.151 C 136.731 115.779,136.798 115.476,136.752 115.476 C 136.706 115.476,136.516 115.779,136.331 116.151 M269.668 119.584 C 269.668 119.676,270.732 119.752,272.032 119.752 C 273.331 119.752,274.395 119.676,274.395 119.584 C 274.395 119.491,273.331 119.415,272.032 119.415 C 270.732 119.415,269.668 119.491,269.668 119.584 M160.788 119.695 C 161.877 119.736,163.599 119.736,164.614 119.695 C 165.630 119.653,164.738 119.619,162.634 119.619 C 160.529 119.620,159.698 119.654,160.788 119.695 " stroke="none" fill="#241464" fill-rule="evenodd"></path></g></svg>